<svg xmlns="http://www.w3.org/2000/svg" xmlns:xlink="http://www.w3.org/1999/xlink" width="224" height="70" version="1.1" viewBox="0 0 224 70"><title>ADA logo</title><desc>Created with Sketch.</desc><defs><polygon id="path-1" points=".122 .131 44.647 .131 44.647 52.679 .122 52.679"/><polygon id="path-3" points="0 69.114 223.284 69.114 223.284 .131 0 .131"/></defs><g id="ADA-Home-Page" fill="none" fill-rule="evenodd" stroke="none" stroke-width="1"><g id="ADA-home-page" transform="translate(-112.000000, -84.000000)"><g id="ADA-logo" transform="translate(112.000000, 84.000000)"><g id="Group-41"><path id="Fill-1" fill="#162E51" d="M20.0180506,0.891924051 L1.3218481,53.4335696 L13.6675443,53.4335696 L17.6407089,42.2592658 L35.3799494,42.2592658 L39.2822278,53.4335696 L51.522481,53.4335696 L32.8617215,0.891924051 L20.0180506,0.891924051 Z M26.4748861,12.7768608 L32.5064051,31.5802785 L20.3015949,31.5802785 L26.4748861,12.7768608 Z"/><g id="Group-40" transform="translate(0.000000, 0.755025)"><g id="Group-4" transform="translate(54.936709, 0.000000)"><mask id="mask-2" fill="#fff"><use xlink:href="#path-1"/></mask><path id="Fill-2" fill="#162E51" d="M12.5751013,42.8517848 L17.541557,42.8517848 C24.7435823,42.8517848 31.7329494,38.3815316 31.7329494,26.0349494 C31.7329494,15.0724177 26.198519,9.99963291 17.6133291,9.99963291 L12.5751013,9.99963291 L12.5751013,42.8517848 Z M17.4352278,0.207607595 C36.4867468,0.775582278 44.6466203,10.8865949 44.6466203,26.2130506 C44.6466203,42.0357089 35.9551013,52.6792532 17.2225696,52.6792532 L0.122189873,52.6792532 L0.122189873,0.136721519 C1.43535443,0.136721519 12.8940886,0.101278481 17.4352278,0.207607595 L17.4352278,0.207607595 Z" mask="url(#mask-2)"/></g><path id="Fill-5" fill="#162E51" d="M128.940886,30.8248987 L122.909367,12.021481 L116.736962,30.8248987 L128.940886,30.8248987 Z M116.452532,0.136544304 L129.295316,0.136544304 L147.956962,52.6790759 L135.716709,52.6790759 L131.81443,41.5038861 L114.076076,41.5038861 L110.102025,52.6790759 L97.7563291,52.6790759 L116.452532,0.136544304 Z"/><mask id="mask-4" fill="#fff"><use xlink:href="#path-3"/></mask><polygon id="Fill-7" fill="#162E51" points="150.914 52.679 158.681 52.679 158.681 45.14 150.914 45.14" mask="url(#mask-4)"/><path id="Fill-9" fill="#162E51" d="M161.386506,42.2262152 C161.386506,35.8438101 165.526253,31.6207722 171.423975,31.6207722 C176.934481,31.6207722 180.32638,35.3041899 180.395494,39.1391266 L174.636,39.1391266 C174.262076,37.463557 173.210304,36.1902658 171.285747,36.1902658 C169.25043,36.1902658 167.409165,37.6301392 167.409165,42.0463418 C167.409165,47.0721646 169.762582,47.8891266 171.521443,47.8891266 C173.072076,47.8891266 174.207139,46.9055823 174.497772,45.9645696 L174.746759,45.2308987 L171.174987,45.2308987 L171.174987,41.5200127 L180.562076,41.5758354 L180.562076,52.4019114 L176.934481,52.4019114 L176.934481,50.1317848 C175.910177,51.183557 174.470304,52.6792532 171.091696,52.6792532 C165.248911,52.6792532 161.386506,48.4012785 161.386506,42.2262152" mask="url(#mask-4)"/><path id="Fill-10" fill="#162E51" d="M197.33319,42.2815949 C197.33319,37.7129873 195.685975,36.0374177 193.414962,36.0374177 C191.144835,36.0374177 189.483443,37.7129873 189.483443,42.2815949 C189.483443,46.6977975 191.144835,48.2626076 193.414962,48.2626076 C195.685975,48.2626076 197.33319,46.6977975 197.33319,42.2815949 M183.460785,42.1983038 C183.460785,35.7884304 187.433949,31.6212152 193.414962,31.6212152 C199.368506,31.6212152 203.314203,35.7884304 203.314203,42.1983038 C203.314203,48.5390633 199.451797,52.6788101 193.414962,52.6788101 C187.32319,52.6788101 183.460785,48.5807089 183.460785,42.1983038" mask="url(#mask-4)"/><polygon id="Fill-11" fill="#162E51" points="216.375 52.402 210.298 52.402 203.389 31.897 208.58 31.897 213.343 45.936 218.078 31.897 223.284 31.897" mask="url(#mask-4)"/><path id="Fill-12" fill="#162E51" d="M4.78950633,65.6475063 L3.86355696,62.7606709 L2.9154557,65.6475063 L4.78950633,65.6475063 Z M2.8711519,60.9353544 L4.84444304,60.9353544 L7.71001266,69.0048481 L5.82975949,69.0048481 L5.23077215,67.288519 L2.50608861,67.288519 L1.89646835,69.0048481 L0.000265822785,69.0048481 L2.8711519,60.9353544 Z" mask="url(#mask-4)"/><polygon id="Fill-13" fill="#162E51" points="9.197 60.935 11.998 60.935 13.572 66.269 15.163 60.935 17.947 60.935 17.947 69.004 16.041 69.004 16.041 62.994 14.28 69.004 12.858 69.004 11.109 63.011 11.109 69.004 9.197 69.004" mask="url(#mask-4)"/><polygon id="Fill-14" fill="#162E51" points="20.105 60.935 25.859 60.935 25.847 62.52 22.023 62.52 22.023 64.171 25.286 64.171 25.286 65.718 22.006 65.718 22.006 67.402 25.891 67.408 25.891 69.004 20.105 69.004" mask="url(#mask-4)"/><path id="Fill-15" fill="#162E51" d="M32.2457215,63.4738734 C32.2457215,62.8199494 31.7282532,62.3627342 31.1124304,62.3627342 L29.684962,62.3627342 L29.684962,64.624 L31.0521772,64.624 C31.7663544,64.624 32.2457215,64.1056456 32.2457215,63.4738734 L32.2457215,63.4738734 Z M32.3166076,69.0047595 L31.0743291,66.0621013 L29.684962,66.0621013 L29.684962,69.0047595 L27.783443,69.0047595 L27.783443,60.9352658 L31.3197722,60.9352658 C33.3355949,60.9352658 34.1640759,62.0029873 34.1640759,63.4410886 C34.1640759,64.7002025 33.5642025,65.3381772 32.8128101,65.7564051 L34.2668608,69.0047595 L32.3166076,69.0047595 Z" mask="url(#mask-4)"/><polygon id="Fill-16" fill="#162E51" points="36.084 69.005 37.985 69.005 37.985 60.935 36.084 60.935" mask="url(#mask-4)"/><path id="Fill-17" fill="#162E51" d="M46.9641519,63.6642025 L44.9749114,63.6757215 C44.8393418,62.8800253 44.3431392,62.362557 43.4987089,62.362557 C42.5293418,62.362557 41.8913671,63.0377468 41.8913671,64.9117975 C41.8913671,66.7982532 42.5231392,67.5771139 43.5102278,67.5771139 C44.3103544,67.5771139 44.8278228,66.9391392 44.970481,66.1390127 L46.953519,66.1593924 C46.7461772,67.7507848 45.9557975,69.1135696 43.5695949,69.1135696 C41.2755443,69.1135696 39.8046582,67.3697722 39.8046582,64.8852152 C39.8046582,62.4059747 41.2542785,60.8261013 43.558962,60.8261013 C45.4330127,60.8261013 46.7895949,62.013443 46.9641519,63.6642025" mask="url(#mask-4)"/><path id="Fill-18" fill="#162E51" d="M52.6739367,65.6475063 L51.7479873,62.7606709 L50.7998861,65.6475063 L52.6739367,65.6475063 Z M50.7555823,60.9353544 L52.7288734,60.9353544 L55.594443,69.0048481 L53.7141899,69.0048481 L53.1152025,67.288519 L50.390519,67.288519 L49.7808987,69.0048481 L47.8846962,69.0048481 L50.7555823,60.9353544 Z" mask="url(#mask-4)"/><polygon id="Fill-19" fill="#162E51" points="64.301 60.935 64.301 69.004 62.585 69.004 58.983 63.823 58.983 69.004 57.081 69.004 57.081 60.935 58.988 60.935 62.4 65.855 62.4 60.935" mask="url(#mask-4)"/><path id="Fill-20" fill="#162E51" d="M66.0636962,66.6391139 L68.0414177,66.6231646 C68.1831899,67.2779747 68.7821772,67.643038 69.6053418,67.643038 C70.401038,67.643038 71.0983797,67.3967089 71.0983797,66.7702532 C71.0983797,66.22 70.4666076,66.0303797 69.7311646,65.893038 L68.3852152,65.6422785 C67.1323038,65.4243038 66.3250886,64.6667089 66.3038228,63.3597468 C66.2869873,61.7843038 67.752557,60.8362025 69.5778734,60.8362025 C71.5290127,60.8362025 72.8368608,62.0244304 72.9786329,63.3163291 L71.054962,63.3322785 C70.9566076,62.5968354 70.4223038,62.3186076 69.6159747,62.3186076 C68.7440759,62.3186076 68.3355949,62.6951899 68.3355949,63.1311392 C68.3355949,63.5502532 68.5544557,63.7903797 69.3439494,63.9534177 L70.6783797,64.1988608 C72.8528101,64.5851899 73.0433165,65.9479747 73.0433165,66.7658228 C73.0433165,68.0993671 71.6158481,69.1139241 69.6159747,69.1139241 C67.9545823,69.1139241 66.2276203,68.3510127 66.0636962,66.6391139" mask="url(#mask-4)"/><polygon id="Fill-21" fill="#162E51" points="86.324 69.005 84.863 69.005 83.469 64.171 82.063 69.005 80.624 69.005 78.221 60.935 80.068 60.935 81.441 65.768 82.793 60.935 84.144 60.935 85.528 65.768 86.874 60.935 88.721 60.935" mask="url(#mask-4)"/><polygon id="Fill-22" fill="#162E51" points="90.185 69.005 92.086 69.005 92.086 60.935 90.185 60.935" mask="url(#mask-4)"/><polygon id="Fill-23" fill="#162E51" points="93.534 60.935 100.149 60.935 100.149 62.619 97.801 62.619 97.801 69.004 95.899 69.004 95.899 62.619 93.534 62.619" mask="url(#mask-4)"/><polygon id="Fill-24" fill="#162E51" points="103.494 65.654 103.494 69.005 101.592 69.005 101.592 60.935 103.494 60.935 103.494 64.084 106.257 64.084 106.257 60.935 108.158 60.935 108.158 69.005 106.257 69.005 106.257 65.654" mask="url(#mask-4)"/><path id="Fill-25" fill="#162E51" d="M116.212671,67.4957722 L116.975582,67.4957722 C118.081405,67.4957722 119.155329,66.8090633 119.155329,64.9119747 C119.155329,63.2293165 118.304696,62.4495696 116.987101,62.4495696 L116.212671,62.4495696 L116.212671,67.4957722 Z M116.959633,60.9450127 C119.885456,61.0327342 121.138367,62.5860253 121.138367,64.939443 C121.138367,67.3690633 119.803937,69.0047595 116.926848,69.0047595 L114.300519,69.0047595 L114.300519,60.9352658 C114.501658,60.9352658 116.262291,60.9299494 116.959633,60.9450127 L116.959633,60.9450127 Z" mask="url(#mask-4)"/><polygon id="Fill-26" fill="#162E51" points="122.957 69.005 124.859 69.005 124.859 60.935 122.957 60.935" mask="url(#mask-4)"/><path id="Fill-27" fill="#162E51" d="M126.640899,66.6391139 L128.61862,66.6231646 C128.760392,67.2779747 129.35938,67.643038 130.182544,67.643038 C130.978241,67.643038 131.675582,67.3967089 131.675582,66.7702532 C131.675582,66.22 131.04381,66.0303797 130.308367,65.893038 L128.962418,65.6422785 C127.709506,65.4243038 126.902291,64.6667089 126.881025,63.3597468 C126.86419,61.7843038 128.329759,60.8362025 130.155076,60.8362025 C132.106215,60.8362025 133.414063,62.0244304 133.555835,63.3163291 L131.632165,63.3322785 C131.53381,62.5968354 130.999506,62.3186076 130.193177,62.3186076 C129.321278,62.3186076 128.912797,62.6951899 128.912797,63.1311392 C128.912797,63.5502532 129.131658,63.7903797 129.921152,63.9534177 L131.255582,64.1988608 C133.430013,64.5851899 133.620519,65.9479747 133.620519,66.7658228 C133.620519,68.0993671 132.193051,69.1139241 130.193177,69.1139241 C128.531785,69.1139241 126.804823,68.3510127 126.640899,66.6391139" mask="url(#mask-4)"/><path id="Fill-28" fill="#162E51" d="M139.431937,65.6475063 L138.505987,62.7606709 L137.557886,65.6475063 L139.431937,65.6475063 Z M137.513582,60.9353544 L139.486873,60.9353544 L142.352443,69.0048481 L140.47219,69.0048481 L139.873203,67.288519 L137.148519,67.288519 L136.538899,69.0048481 L134.642696,69.0048481 L137.513582,60.9353544 Z" mask="url(#mask-4)"/><path id="Fill-29" fill="#162E51" d="M147.130165,67.5607215 C147.936494,67.5607215 148.350291,67.1407215 148.350291,66.5957848 C148.350291,66.0127468 147.877127,65.664519 147.201051,65.664519 L145.740797,65.664519 L145.740797,67.5607215 L147.130165,67.5607215 Z M147.201051,64.1767975 C147.794722,64.1767975 148.263456,63.8666709 148.263456,63.3048987 C148.263456,62.7165443 147.768139,62.3780633 147.108899,62.3780633 L145.740797,62.3780633 L145.740797,64.1767975 L147.201051,64.1767975 Z M143.839278,60.9346456 L146.917506,60.9346456 C149.10257,60.9346456 150.094089,61.6922405 150.094089,63.0603418 C150.094089,63.8338861 149.76181,64.3947722 148.742823,64.8635063 C150.121557,65.2507215 150.285481,66.1394557 150.285481,66.8137595 C150.285481,68.3076835 149.348013,69.0050253 147.076114,69.0050253 L143.839278,69.0050253 L143.839278,60.9346456 Z" mask="url(#mask-4)"/><polygon id="Fill-30" fill="#162E51" points="152.098 69.005 154 69.005 154 60.935 152.098 60.935" mask="url(#mask-4)"/><polygon id="Fill-31" fill="#162E51" points="158.069 60.935 158.069 67.418 161.431 67.418 161.431 69.004 156.157 69.004 156.162 60.935" mask="url(#mask-4)"/><polygon id="Fill-32" fill="#162E51" points="162.974 69.005 164.876 69.005 164.876 60.935 162.974 60.935" mask="url(#mask-4)"/><polygon id="Fill-33" fill="#162E51" points="166.324 60.935 172.939 60.935 172.939 62.619 170.59 62.619 170.59 69.004 168.688 69.004 168.688 62.619 166.324 62.619" mask="url(#mask-4)"/><polygon id="Fill-34" fill="#162E51" points="174.382 69.005 176.284 69.005 176.284 60.935 174.382 60.935" mask="url(#mask-4)"/><polygon id="Fill-35" fill="#162E51" points="178.441 60.935 184.194 60.935 184.184 62.52 180.359 62.52 180.359 64.171 183.623 64.171 183.623 65.718 180.342 65.718 180.342 67.402 184.227 67.408 184.227 69.004 178.441 69.004" mask="url(#mask-4)"/><path id="Fill-36" fill="#162E51" d="M185.656747,66.6391139 L187.634468,66.6231646 C187.777127,67.2779747 188.375228,67.643038 189.198392,67.643038 C189.994089,67.643038 190.69143,67.3967089 190.69143,66.7702532 C190.69143,66.22 190.059658,66.0303797 189.324215,65.893038 L187.97738,65.6422785 C186.724468,65.4243038 185.918139,64.6667089 185.896873,63.3597468 C185.880038,61.7843038 187.345608,60.8362025 189.17181,60.8362025 C191.122063,60.8362025 192.429911,62.0244304 192.571684,63.3163291 L190.648013,63.3322785 C190.548772,62.5968354 190.016241,62.3186076 189.209911,62.3186076 C188.337127,62.3186076 187.928646,62.6951899 187.928646,63.1311392 C187.928646,63.5502532 188.147506,63.7903797 188.937,63.9534177 L190.272316,64.1988608 C192.445861,64.5851899 192.636367,65.9479747 192.636367,66.7658228 C192.636367,68.0993671 191.208899,69.1139241 189.209911,69.1139241 C187.547633,69.1139241 185.820671,68.3510127 185.656747,66.6391139" mask="url(#mask-4)"/><path id="Fill-37" fill="#162E51" d="M202.653101,65.6475063 L201.726266,62.7606709 L200.779051,65.6475063 L202.653101,65.6475063 Z M200.734747,60.9353544 L202.707152,60.9353544 L205.572722,69.0048481 L203.693354,69.0048481 L203.094367,67.288519 L200.369684,67.288519 L199.759177,69.0048481 L197.862975,69.0048481 L200.734747,60.9353544 Z" mask="url(#mask-4)"/><path id="Fill-38" fill="#162E51" d="M213.548203,63.6642025 L211.558962,63.6757215 C211.424278,62.8800253 210.92719,62.362557 210.082759,62.362557 C209.113392,62.362557 208.474532,63.0377468 208.474532,64.9117975 C208.474532,66.7982532 209.10719,67.5771139 210.094278,67.5771139 C210.894405,67.5771139 211.411873,66.9391392 211.553646,66.1390127 L213.536684,66.1593924 C213.330228,67.7507848 212.539848,69.1135696 210.153646,69.1135696 C207.859595,69.1135696 206.388709,67.3697722 206.388709,64.8852152 C206.388709,62.4059747 207.838329,60.8261013 210.143013,60.8261013 C212.017063,60.8261013 213.374532,62.013443 213.548203,63.6642025" mask="url(#mask-4)"/><polygon id="Fill-39" fill="#162E51" points="214.722 60.935 221.337 60.935 221.337 62.619 218.988 62.619 218.988 69.004 217.086 69.004 217.086 62.619 214.722 62.619" mask="url(#mask-4)"/></g></g></g></g></g></svg>